# xmcd CD database file
#
# Track frame offsets:
#	150
#	27437
#	55242
#	79320
#	110985
#	134140
#	155085
#
# Disc length: 2399 seconds
#
# Revision: 1
# Processed by: cddbd v1.5.2PL0 Copyright (c) Steve Scherf et al.
# Submitted via: CDex 1.51
#
DISCID=69095d07
DTITLE=Eddie Taylor - Stormy Monday
DYEAR=1978
DGENRE=Blues
TTITLE0=Road Of Love
TTITLE1=Rock Me Baby
TTITLE2=A Pain In My Neck
TTITLE3=Stormy Monday
TTITLE4=Blues Club
TTITLE5=Let Me Love You Baby
TTITLE6=Woman You Must Be Stone Crazy
EXTD=YEAR: 1978
EXTT0=
EXTT1=
EXTT2=
EXTT3=
EXTT4=
EXTT5=
EXTT6=
PLAYORDER=
